<svg width="127" height="27" viewBox="0 0 127 27" fill="none" xmlns="http://www.w3.org/2000/svg">
<path d="M5.952 18.944C5.952 19.888 5.032 20.36 3.192 20.36C2.792 20.36 2.552 20.16 2.472 19.76C2.408 19.344 2.376 18.784 2.376 18.08C2.376 16.704 2.736 14.664 3.456 11.96C4.176 9.256 4.904 7.088 5.64 5.456C3.928 5.488 2.648 5.824 1.8 6.464C1.544 6.656 1.336 6.832 1.176 6.992C1.016 7.136 0.872 7.208 0.744 7.208C0.632 7.208 0.52 7.12 0.408 6.944C0.296 6.752 0.24 6.528 0.24 6.272C0.24 5.392 0.632 4.712 1.416 4.232C2.536 3.56 4.128 3.112 6.192 2.888C7.104 2.792 7.936 2.744 8.688 2.744H8.736C8.848 2.744 9 2.808 9.192 2.936C9.4 3.064 9.504 3.272 9.504 3.56C9.504 3.848 9.448 4.176 9.336 4.544C9.24 4.896 9.104 5.16 8.928 5.336C8.832 6.104 8.624 7.024 8.304 8.096C7.984 9.168 7.648 10.312 7.296 11.528C6.4 14.664 5.952 17.136 5.952 18.944ZM17.808 14.336C18.08 14.336 18.216 14.704 18.216 15.44C18.216 15.84 18.048 16.328 17.712 16.904C17.376 17.464 16.936 17.984 16.392 18.464C15.864 18.928 15.272 19.312 14.616 19.616C13.96 19.92 13.336 20.072 12.744 20.072C12.152 20.072 11.688 19.96 11.352 19.736C11.016 19.512 10.752 19.208 10.56 18.824C10.288 18.28 10.064 17.248 9.888 15.728C9.712 14.192 9.536 13.12 9.36 12.512C8.944 12.432 8.576 12.272 8.256 12.032C7.952 11.776 7.8 11.472 7.8 11.12C7.8 10.752 7.96 10.488 8.28 10.328C8.616 10.168 8.992 10.088 9.408 10.088C9.824 10.088 10.192 10.184 10.512 10.376C11.376 9.448 12.16 8.232 12.864 6.728C13.184 6.04 13.488 5.336 13.776 4.616C14.08 3.88 14.392 3.128 14.712 2.36C14.792 2.168 14.96 2.056 15.216 2.024C15.488 1.976 15.84 1.952 16.272 1.952C16.704 1.952 17.008 2.096 17.184 2.384C17.36 2.656 17.448 3.112 17.448 3.752C17.448 4.376 17.28 5.096 16.944 5.912C16.608 6.728 16.176 7.52 15.648 8.288C14.544 9.904 13.272 11.12 11.832 11.936C12.088 12.464 12.296 13.048 12.456 13.688C12.616 14.312 12.768 14.896 12.912 15.44C13.056 15.968 13.216 16.416 13.392 16.784C13.584 17.136 13.816 17.312 14.088 17.312C14.36 17.312 14.68 17.16 15.048 16.856C15.432 16.536 15.808 16.192 16.176 15.824C16.544 15.456 16.872 15.12 17.16 14.816C17.464 14.496 17.68 14.336 17.808 14.336ZM22.6011 17.384C23.8491 17.384 25.0571 16.888 26.2251 15.896C26.6571 15.528 27.0091 15.192 27.2811 14.888C27.5531 14.568 27.7611 14.408 27.9051 14.408C28.1291 14.408 28.2411 14.632 28.2411 15.08C28.2411 15.528 28.1211 16.032 27.8811 16.592C27.6411 17.136 27.2411 17.672 26.6811 18.2C25.3051 19.496 23.4171 20.144 21.0171 20.144C19.1131 20.144 17.8171 19.456 17.1291 18.08C16.8891 17.6 16.7691 16.912 16.7691 16.016C16.7691 15.12 16.9451 14.192 17.2971 13.232C17.6491 12.256 18.1131 11.416 18.6891 10.712C19.2811 10.008 19.9611 9.464 20.7291 9.08C21.4971 8.68 22.3131 8.48 23.1771 8.48C24.0571 8.48 24.7291 8.696 25.1931 9.128C25.6731 9.56 25.9131 10.12 25.9131 10.808C25.9131 11.496 25.7371 12.064 25.3851 12.512C25.0491 12.944 24.6091 13.312 24.0651 13.616C23.5211 13.904 22.9131 14.168 22.2411 14.408C21.5851 14.632 20.9371 14.888 20.2971 15.176V15.776C20.3131 16.352 20.5531 16.76 21.0171 17C21.4811 17.24 22.0091 17.368 22.6011 17.384ZM22.1931 10.616C21.3611 10.616 20.7851 11.584 20.4651 13.52C20.8011 13.296 21.1131 13.096 21.4011 12.92C21.7051 12.744 21.9691 12.576 22.1931 12.416C22.6731 12.064 22.9211 11.664 22.9371 11.216C22.9371 10.816 22.6891 10.616 22.1931 10.616ZM30.2323 8.024C30.8083 8.024 31.3523 8.576 31.8643 9.68C32.6163 8.896 33.5443 8.504 34.6483 8.504C35.7683 8.504 36.6083 8.752 37.1683 9.248C37.7283 9.728 38.0083 10.416 38.0083 11.312C38.0083 12.192 37.8883 13.088 37.6483 14C37.4243 14.912 37.2563 15.568 37.1443 15.968C37.0483 16.352 37.0003 16.672 37.0003 16.928C37.0003 17.184 37.0883 17.312 37.2643 17.312C37.5043 17.312 37.8003 17.16 38.1523 16.856C38.5043 16.552 38.8563 16.224 39.2083 15.872C39.5603 15.504 39.8803 15.168 40.1683 14.864C40.4723 14.56 40.6803 14.408 40.7923 14.408C41.0163 14.408 41.1283 14.68 41.1283 15.224C41.1283 16.344 40.5763 17.424 39.4723 18.464C37.6163 19.552 36.4323 20.096 35.9203 20.096C35.8723 20.096 35.8403 20.088 35.8243 20.072C34.5443 20.072 33.9043 19.048 33.9043 17C33.9043 16.12 33.9843 15.312 34.1443 14.576C34.3203 13.84 34.4483 13.304 34.5283 12.968C34.6083 12.632 34.6483 12.288 34.6483 11.936C34.6483 11.36 34.3123 11.072 33.6403 11.072C32.9843 11.072 32.3523 11.568 31.7443 12.56C31.1523 13.536 30.7523 14.552 30.5443 15.608V15.776C30.5443 16.32 30.6243 16.88 30.7843 17.456C30.9603 18.032 31.0483 18.432 31.0483 18.656C31.0483 19.2 30.3683 19.736 29.0083 20.264C28.8003 20.344 28.6163 20.384 28.4563 20.384C28.0563 20.384 27.7763 20.176 27.6163 19.76C27.4723 19.344 27.4003 18.696 27.4003 17.816C27.4003 15.544 27.4883 13.904 27.6643 12.896C27.9043 11.392 28.4483 9.992 29.2963 8.696C29.5843 8.248 29.8963 8.024 30.2323 8.024ZM46.9869 9.56C48.8749 9.56 49.8189 9.904 49.8189 10.592C49.8189 10.976 49.6829 11.608 49.4109 12.488C47.9709 14.872 46.5149 16.56 45.0429 17.552C45.7469 17.728 46.4189 17.816 47.0589 17.816C47.6989 17.816 48.2909 17.64 48.8349 17.288C49.3949 16.936 49.8829 16.544 50.2989 16.112C50.7149 15.68 51.0589 15.288 51.3309 14.936C51.6189 14.584 51.8509 14.408 52.0269 14.408C52.2509 14.408 52.3629 14.712 52.3629 15.32C52.3629 15.928 52.1869 16.536 51.8349 17.144C51.4829 17.736 50.9949 18.264 50.3709 18.728C48.9949 19.752 47.3389 20.264 45.4029 20.264C44.6189 20.264 43.9389 20.168 43.3629 19.976C42.7869 19.768 42.3709 19.576 42.1149 19.4C41.8749 19.224 41.7549 18.984 41.7549 18.68C41.7549 18.36 41.8109 17.944 41.9229 17.432C42.1629 17.096 42.5469 16.728 43.0749 16.328C43.6189 15.928 44.1549 15.512 44.6829 15.08C45.2269 14.648 45.6989 14.216 46.0989 13.784C46.5149 13.352 46.7229 12.928 46.7229 12.512C46.7229 12.352 46.3469 12.272 45.5949 12.272L41.6349 12.488C41.2189 12.488 40.9069 12.368 40.6989 12.128C40.5069 11.872 40.4109 11.584 40.4109 11.264C40.4109 10.528 40.6829 9.88 41.2269 9.32C41.7869 8.76 42.5149 8.472 43.4109 8.456C43.7949 8.456 44.2509 8.584 44.7789 8.84C45.3069 9.096 45.7229 9.28 46.0269 9.392C46.3469 9.504 46.6669 9.56 46.9869 9.56ZM54.0375 20.072C52.4375 20.072 51.6375 18.576 51.6375 15.584C51.6375 13.952 51.8375 12.472 52.2375 11.144C52.8615 9.096 53.5655 8.072 54.3495 8.072C54.8135 8.072 55.1815 8.384 55.4535 9.008C55.6775 9.488 55.7815 9.96 55.7655 10.424C55.7655 11.064 55.5735 12.192 55.1895 13.808C54.8215 15.216 54.6375 16.088 54.6375 16.424C54.6375 16.76 54.7175 16.992 54.8775 17.12C55.0535 17.248 55.2535 17.312 55.4775 17.312C55.7175 17.312 56.0135 17.16 56.3655 16.856C56.7175 16.552 57.0695 16.224 57.4215 15.872C57.7735 15.504 58.0935 15.168 58.3815 14.864C58.6855 14.56 58.8935 14.408 59.0055 14.408C59.2295 14.408 59.3415 14.68 59.3415 15.224C59.3415 16.344 58.7735 17.44 57.6375 18.512C56.5175 19.568 55.3175 20.088 54.0375 20.072ZM55.0215 6.128C54.5895 5.488 54.3735 4.8 54.3735 4.064C54.3735 3.328 54.4855 2.72 54.7095 2.24C54.9495 1.744 55.1735 1.384 55.3815 1.16C55.5895 0.92 55.8295 0.8 56.1015 0.8C56.5495 0.8 56.9575 1.136 57.3255 1.808C57.6935 2.464 57.8775 3.016 57.8775 3.464C57.8775 4.296 57.5815 4.952 56.9895 5.432C56.4135 5.896 55.7575 6.128 55.0215 6.128ZM63.7339 17.384C64.9819 17.384 66.1899 16.888 67.3579 15.896C67.7899 15.528 68.1419 15.192 68.4139 14.888C68.6859 14.568 68.8939 14.408 69.0379 14.408C69.2619 14.408 69.3739 14.632 69.3739 15.08C69.3739 15.528 69.2539 16.032 69.0139 16.592C68.7739 17.136 68.3739 17.672 67.8139 18.2C66.4379 19.496 64.5499 20.144 62.1499 20.144C60.2459 20.144 58.9499 19.456 58.2619 18.08C58.0219 17.6 57.9019 16.912 57.9019 16.016C57.9019 15.12 58.0779 14.192 58.4299 13.232C58.7819 12.256 59.2459 11.416 59.8219 10.712C60.4139 10.008 61.0939 9.464 61.8619 9.08C62.6299 8.68 63.4459 8.48 64.3099 8.48C65.1899 8.48 65.8619 8.696 66.3259 9.128C66.8059 9.56 67.0459 10.12 67.0459 10.808C67.0459 11.496 66.8699 12.064 66.5179 12.512C66.1819 12.944 65.7419 13.312 65.1979 13.616C64.6539 13.904 64.0459 14.168 63.3739 14.408C62.7179 14.632 62.0699 14.888 61.4299 15.176V15.776C61.4459 16.352 61.6859 16.76 62.1499 17C62.6139 17.24 63.1419 17.368 63.7339 17.384ZM63.3259 10.616C62.4939 10.616 61.9179 11.584 61.5979 13.52C61.9339 13.296 62.2459 13.096 62.5339 12.92C62.8379 12.744 63.1019 12.576 63.3259 12.416C63.8059 12.064 64.0539 11.664 64.0699 11.216C64.0699 10.816 63.8219 10.616 63.3259 10.616ZM77.3651 9.08C77.5891 8.376 77.9491 8.024 78.4451 8.024C78.8931 8.04 79.3171 8.36 79.7171 8.984C80.1171 9.592 80.3171 10.064 80.3171 10.4C80.2851 11.056 80.0851 12.104 79.7171 13.544C79.3491 14.968 78.8291 16.824 78.1571 19.112C79.2131 18.296 80.2531 17.232 81.2771 15.92C81.6291 15.472 81.9251 15.112 82.1651 14.84C82.4211 14.552 82.6291 14.408 82.7891 14.408C83.0131 14.408 83.1251 14.664 83.1251 15.176C83.1251 16.184 82.5571 17.36 81.4211 18.704C80.3011 20.048 78.9251 21.096 77.2931 21.848C77.1011 22.488 76.8931 23.096 76.6691 23.672C76.4451 24.248 76.1571 24.752 75.8051 25.184C75.0371 26.112 73.8691 26.576 72.3011 26.576C71.2451 26.576 70.3411 26.272 69.5891 25.664C68.8531 25.056 68.4851 24.296 68.4851 23.384C68.4851 22.888 68.6451 22.496 68.9651 22.208C69.3011 21.92 69.7571 21.688 70.3331 21.512C70.9091 21.336 71.5811 21.184 72.3491 21.056C73.1331 20.928 73.9651 20.768 74.8451 20.576C74.9251 20.304 74.9891 20.04 75.0371 19.784C75.1011 19.512 75.1651 19.24 75.2291 18.968C74.3491 19.784 73.2691 20.192 71.9891 20.192C70.7251 20.192 69.7491 19.84 69.0611 19.136C68.3731 18.432 68.0371 17.576 68.0531 16.568C68.0531 13.848 68.9571 11.704 70.7651 10.136C72.0131 9.064 73.3091 8.528 74.6531 8.528C75.1171 8.528 75.6131 8.584 76.1411 8.696C76.6851 8.808 77.0931 8.936 77.3651 9.08ZM71.5811 15.776C71.5811 17.008 72.0371 17.624 72.9491 17.624C73.4611 17.624 73.9811 17.432 74.5091 17.048C75.0371 16.664 75.4611 16.04 75.7811 15.176C76.0211 14.056 76.2691 13.024 76.5251 12.08C76.7971 11.136 76.9811 10.48 77.0771 10.112C75.7331 10.288 74.4771 10.888 73.3091 11.912C72.1571 12.936 71.5811 14.224 71.5811 15.776ZM74.1011 22.784C73.5251 22.896 73.0211 22.984 72.5891 23.048C72.1571 23.112 71.7971 23.168 71.5091 23.216C71.2371 23.264 71.0291 23.32 70.8851 23.384C70.7571 23.448 70.6931 23.552 70.6931 23.696C70.6931 23.984 70.8691 24.232 71.2211 24.44C71.5891 24.648 71.9491 24.744 72.3011 24.728C72.9091 24.728 73.5091 24.08 74.1011 22.784ZM85.4349 15.968L85.5789 18.896C85.5789 19.28 85.3789 19.624 84.9789 19.928C84.5789 20.232 84.0349 20.384 83.3469 20.384C82.9469 20.384 82.6669 20.176 82.5069 19.76C82.3629 19.344 82.2909 18.736 82.2909 17.936C82.2909 16.256 82.3709 14.944 82.5309 14C82.7069 13.04 83.0429 12.072 83.5389 11.096C82.8029 10.392 82.4349 9.784 82.4349 9.272C82.4349 8.2 83.0109 7.664 84.1629 7.664C84.7549 7.664 85.2749 7.976 85.7229 8.6C86.0429 9.032 86.2749 9.536 86.4189 10.112C86.6429 10.192 86.9229 10.232 87.2589 10.232C87.7229 10.232 88.2589 10.08 88.8669 9.776L89.4909 9.464C89.6829 9.368 89.8509 9.32 89.9949 9.32C90.4589 9.32 90.9229 10 91.3869 11.36C91.2429 11.984 91.0829 12.584 90.9069 13.16C90.7469 13.736 90.5549 14.432 90.3309 15.248C90.1069 16.064 89.9869 16.616 89.9709 16.904C89.9709 17.176 90.0589 17.312 90.2349 17.312C90.4749 17.312 90.7709 17.16 91.1229 16.856C91.4749 16.552 91.8269 16.224 92.1789 15.872C92.5309 15.504 92.8509 15.168 93.1389 14.864C93.4429 14.56 93.6509 14.408 93.7629 14.408C93.9869 14.408 94.0989 14.68 94.0989 15.224C94.0989 16.328 93.6109 17.416 92.6349 18.488C91.6749 19.56 90.5709 20.088 89.3229 20.072C88.5869 20.072 88.0349 19.776 87.6669 19.184C87.2989 18.592 87.1069 17.872 87.0909 17.024C87.0909 15.344 87.4669 13.752 88.2189 12.248C87.8669 12.392 87.4669 12.464 87.0189 12.464C86.5869 12.464 86.2749 12.448 86.0829 12.416C85.9389 13.024 85.7949 13.64 85.6509 14.264C85.5069 14.872 85.4349 15.44 85.4349 15.968ZM107.636 14.336C107.924 14.336 108.068 14.704 108.068 15.44C108.068 15.84 107.9 16.328 107.564 16.904C107.228 17.464 106.788 17.984 106.244 18.464C105.716 18.928 105.124 19.312 104.468 19.616C103.812 19.92 103.172 20.072 102.548 20.072C101.7 20.072 101.132 19.328 100.844 17.84C100.428 18.528 99.8837 19.096 99.2117 19.544C98.5397 19.976 97.6357 20.192 96.4997 20.192C95.3797 20.192 94.4757 19.84 93.7877 19.136C93.0997 18.432 92.7637 17.576 92.7797 16.568C92.7797 13.848 93.6837 11.704 95.4917 10.136C96.2597 9.48 96.9717 9.048 97.6277 8.84C98.2997 8.632 99.0037 8.528 99.7397 8.528C100.476 8.528 101.076 8.656 101.54 8.912C101.764 8.448 102.02 8.216 102.308 8.216C102.868 8.216 103.396 8.464 103.892 8.96C104.404 9.44 104.66 9.896 104.66 10.328C104.436 10.856 104.108 11.488 103.676 12.224C103.548 12.96 103.484 13.992 103.484 15.32C103.484 16.648 103.652 17.312 103.988 17.312C104.404 17.312 105.412 16.48 107.012 14.816C107.3 14.496 107.508 14.336 107.636 14.336ZM96.3077 15.776C96.3077 17.008 96.7637 17.624 97.6757 17.624C98.6517 17.608 99.4597 17.088 100.1 16.064C100.324 15.712 100.508 15.28 100.652 14.768C100.652 12.976 100.812 11.44 101.132 10.16C99.8357 10.416 98.7077 11.04 97.7477 12.032C96.7877 13.024 96.3077 14.272 96.3077 15.776ZM120.02 12.704C120.02 12.176 119.716 11.912 119.108 11.912C118.692 11.912 118.228 12.32 117.716 13.136C117.204 13.936 116.836 14.8 116.612 15.728V15.776C116.612 16.32 116.692 16.88 116.852 17.456C117.028 18.032 117.116 18.432 117.116 18.656C117.116 19.2 116.436 19.736 115.076 20.264C114.868 20.344 114.684 20.384 114.524 20.384C114.124 20.384 113.844 20.176 113.684 19.76C113.54 19.344 113.468 18.784 113.468 18.08C113.468 17.36 113.484 16.688 113.516 16.064C113.564 15.424 113.604 14.84 113.636 14.312C113.684 13.768 113.724 13.296 113.756 12.896C113.804 12.48 113.828 12.144 113.828 11.888C113.828 11.344 113.58 11.072 113.084 11.072C112.588 11.072 112.012 11.656 111.356 12.824C110.7 13.976 110.372 14.896 110.372 15.584C110.372 16.256 110.452 16.88 110.612 17.456C110.788 18.032 110.876 18.432 110.876 18.656C110.876 19.2 110.196 19.736 108.836 20.264C108.628 20.344 108.444 20.384 108.284 20.384C107.884 20.384 107.604 20.176 107.444 19.76C107.3 19.344 107.228 18.704 107.228 17.84C107.228 15.568 107.316 13.928 107.492 12.92C107.732 11.432 108.276 10.024 109.124 8.696C109.412 8.248 109.724 8.024 110.06 8.024C110.588 8.024 111.076 8.456 111.524 9.32C111.652 9.544 111.748 9.752 111.812 9.944C112.58 8.984 113.484 8.504 114.524 8.504C115.212 8.504 115.828 8.736 116.372 9.2C116.916 9.648 117.188 10.216 117.188 10.904V11.168C118.164 9.952 119.356 9.344 120.764 9.344C121.628 9.344 122.284 9.568 122.732 10.016C123.18 10.464 123.404 11.016 123.404 11.672C123.404 12.328 123.356 12.92 123.26 13.448C123.164 13.976 123.052 14.472 122.924 14.936C122.812 15.4 122.708 15.816 122.612 16.184C122.516 16.536 122.468 16.816 122.468 17.024C122.468 17.216 122.532 17.312 122.66 17.312C122.9 17.312 123.196 17.16 123.548 16.856C123.9 16.552 124.252 16.224 124.604 15.872C124.956 15.504 125.276 15.168 125.564 14.864C125.868 14.56 126.076 14.408 126.188 14.408C126.412 14.408 126.524 14.68 126.524 15.224C126.524 16.344 125.956 17.432 124.82 18.488C123.7 19.544 122.5 20.072 121.22 20.072C120.068 20.072 119.492 19.024 119.492 16.928C119.492 16.4 119.58 15.672 119.756 14.744C119.932 13.816 120.02 13.136 120.02 12.704Z" fill="#262626"/>
</svg>
